<svg width="77" height="75" viewBox="0 0 77 75" fill="none" xmlns="http://www.w3.org/2000/svg">
<rect width="77" height="75" fill="#0B1D2F"/>
<path d="M16.7322 24.2678C15.7559 23.2912 15.7559 21.7084 16.7322 20.7318C17.7086 19.7561 19.2914 19.7561 20.268 20.7318L35.2656 35.7342C36.2422 36.7107 36.2422 38.2889 35.2656 39.2654L20.268 54.2654C19.2914 55.242 17.7086 55.242 16.7322 54.2654C15.7559 53.2888 15.7559 51.7107 16.7322 50.7342L29.9609 37.4998L16.7322 24.2678Z" fill="white"/>
<path d="M58.5 49.9998C59.8828 49.9998 61 51.117 61 52.4998C61 53.8826 59.8828 54.9998 58.5 54.9998H36C34.6172 54.9998 33.5 53.8826 33.5 52.4998C33.5 51.117 34.6172 49.9998 36 49.9998H58.5Z" fill="white"/>
<path d="M34.7352 36.2644L34.7353 36.2645C35.419 36.9482 35.419 38.0514 34.7353 38.7351L34.7353 38.7351L19.7376 53.7351C19.054 54.4187 17.9461 54.4187 17.2626 53.7352C16.5791 53.0515 16.5791 51.9481 17.2626 51.2644L17.2626 51.2644L30.4914 38.03L31.0214 37.4997L30.4913 36.9695L17.2626 23.7375C17.2626 23.7375 17.2626 23.7375 17.2626 23.7375C16.5792 23.0539 16.5791 21.946 17.2623 21.2623C17.2624 21.2623 17.2624 21.2623 17.2624 21.2622C17.2625 21.2622 17.2625 21.2621 17.2626 21.2621C17.9461 20.5793 19.0539 20.5793 19.7376 21.2621C19.7376 21.2621 19.7376 21.2622 19.7377 21.2622C19.7377 21.2623 19.7378 21.2623 19.7379 21.2624L34.7352 36.2644ZM58.5 50.7498C59.4686 50.7498 60.25 51.5312 60.25 52.4998C60.25 53.4684 59.4686 54.2498 58.5 54.2498H36C35.0314 54.2498 34.25 53.4684 34.25 52.4998C34.25 51.5312 35.0314 50.7498 36 50.7498H58.5Z" stroke="#3294F8" stroke-width="1.5"/>
</svg>
